<svg fill="#0d6efd" xmlns="http://www.w3.org/2000/svg" width="64" height="64" viewBox="0 0 438.987 438.988" xml:space="preserve"><path d="M226.861 322.031c-25.64 0-46.501 20.863-46.501 46.511 0 25.643 20.862 46.508 46.501 46.508 25.641 0 46.517-20.865 46.517-46.508 0-25.648-20.867-46.511-46.517-46.511zm0 70.606c-13.286 0-24.088-10.809-24.088-24.096 0-13.285 10.802-24.098 24.088-24.098 13.282 0 24.101 10.812 24.101 24.098 0 13.288-10.805 24.096-24.101 24.096zM422.17 23.938h-55.848L317.6 136.004h-24.43l3.773-10.651-17.719-6.282c5.485-7.838 13.593-22.027 5.921-32.523-8.906-12.164-34.395-8.708-55.004-3.362-12.637-17.122-30.265-35.861-44.845-32.011-12.565 3.324-15.203 19.456-15.87 28.991l-17.74-6.269-21.992 62.107h-25.62l-15.167-27.283-44.069 24.498 1.541 2.786H0l44.827 179.307h231.478L388.369 57.558h33.806c9.281 0 16.812-7.527 16.812-16.81 0-9.286-7.536-16.81-16.817-16.81zM271.455 96.264c.013.042.783 4.26-8.479 16.559-.099.128-.155.276-.254.41l-19.239-6.82c.163-1.754-.187-3.568-1.183-5.182-.591-.952-1.247-2-1.924-3.083 15.544-3.457 28.381-4.461 31.079-1.884zM185.97 85.539c.536-15.021 3.651-18.036 3.556-18.09 3.919-.355 13.333 8.476 23.231 20.922-1.215.402-2.375.808-3.423 1.171-1.791.627-3.203 1.82-4.179 3.284l-19.253-6.821c.021-.151.068-.302.068-.466zm24.893 22.695 15.847 5.614-7.844 22.162h-17.841l9.838-27.776zm-21.744 61.39h17.83l-14.36 40.528h-17.832l14.362-40.528zm-146.057 0H65.06l22.526 40.528H53.2l-10.138-40.528zm211.195 112.067H71.079l-9.475-37.921h44.663l18.177 32.714 44.081-24.506-4.561-8.208h16.723l-1.219 3.437 66.017 23.387 9.506-26.823h15.754l-16.488 37.92zm30.807-70.871c-1.413-.388-2.885-.667-4.431-.667h-13.737l14.364-40.528h21.715l-17.911 41.195zM103.262 322.031c-25.638 0-46.5 20.863-46.5 46.511 0 25.643 20.862 46.508 46.5 46.508 25.643 0 46.515-20.865 46.515-46.508 0-25.648-20.872-46.511-46.515-46.511zm0 70.606c-13.283 0-24.088-10.809-24.088-24.096 0-13.285 10.805-24.098 24.088-24.098 13.286 0 24.103 10.812 24.103 24.098 0 13.288-10.817 24.096-24.103 24.096z"/></svg>